{
	"asset":{
		"generator":"Khronos glTF Blender I/O v4.0.44",
		"version":"2.0"
	},
	"scene":0,
	"scenes":[
		{
			"name":"Scene",
			"nodes":[
				5
			]
		}
	],
	"nodes":[
		{
			"mesh":0,
			"name":"UnstableStarCore_1_0"
		},
		{
			"children":[
				0
			],
			"name":"UnstableStarCore",
			"rotation":[
				-0.7071013450622559,
				0.0027767939027398825,
				0.0027767939027398825,
				0.7071013450622559
			]
		},
		{
			"children":[
				1
			],
			"name":"RootNode"
		},
		{
			"children":[
				2
			],
			"name":"Object_2"
		},
		{
			"children":[
				3
			],
			"name":"3a2aaa22fb3d4b329318a980ad1bf6d1.fbx",
			"rotation":[
				0.70710688829422,
				0,
				0,
				0.7071066498756409
			]
		},
		{
			"children":[
				4
			],
			"name":"Sketchfab_model",
			"rotation":[
				-0.70710688829422,
				0,
				0,
				0.7071066498756409
			]
		}
	],
	"materials":[
		{
			"name":"material",
			"pbrMetallicRoughness":{
				"baseColorTexture":{
					"index":0
				},
				"metallicFactor":0
			}
		}
	],
	"meshes":[
		{
			"name":"UnstableStarCore_1_0",
			"primitives":[
				{
					"attributes":{
						"POSITION":0,
						"NORMAL":1,
						"TEXCOORD_0":2
					},
					"indices":3,
					"material":0
				}
			]
		}
	],
	"textures":[
		{
			"sampler":0,
			"source":0
		}
	],
	"images":[
		{
			"mimeType":"image/jpeg",
			"name":"material_baseColor",
			"uri":"material_baseColor.jpg"
		}
	],
	"accessors":[
		{
			"bufferView":0,
			"componentType":5126,
			"count":543,
			"max":[
				9.995849609375,
				10.02656078338623,
				10.055370330810547
			],
			"min":[
				-10.007933616638184,
				-9.999884605407715,
				-10.05536937713623
			],
			"type":"VEC3"
		},
		{
			"bufferView":1,
			"componentType":5126,
			"count":543,
			"type":"VEC3"
		},
		{
			"bufferView":2,
			"componentType":5126,
			"count":543,
			"type":"VEC2"
		},
		{
			"bufferView":3,
			"componentType":5123,
			"count":2910,
			"type":"SCALAR"
		}
	],
	"bufferViews":[
		{
			"buffer":0,
			"byteLength":6516,
			"byteOffset":0,
			"target":34962
		},
		{
			"buffer":0,
			"byteLength":6516,
			"byteOffset":6516,
			"target":34962
		},
		{
			"buffer":0,
			"byteLength":4344,
			"byteOffset":13032,
			"target":34962
		},
		{
			"buffer":0,
			"byteLength":5820,
			"byteOffset":17376,
			"target":34963
		}
	],
	"samplers":[
		{
			"magFilter":9729,
			"minFilter":9987
		}
	],
	"buffers":[
		{
			"byteLength":23196,
			"uri":"Sun.bin"
		}
	]
}
